<svg width="50" height="50" viewBox="0 0 50 50" fill="none" xmlns="http://www.w3.org/2000/svg">
<circle cx="25" cy="25" r="25" fill="url(#paint0_linear_413_79)"/>
<path d="M25.75 12C23.1652 12.0034 20.6872 13.0318 18.8595 14.8595C17.0318 16.6872 16.0034 19.1652 16 21.75C16 28.7497 25.0837 37.5165 25.4697 37.8862C25.5447 37.9592 25.6453 38 25.75 38C25.8547 38 25.9552 37.9592 26.0303 37.8862C26.4162 37.5165 35.5 28.7497 35.5 21.75C35.4965 19.1652 34.4682 16.6872 32.6405 14.8595C30.8127 13.0318 28.3348 12.0034 25.75 12V12ZM25.75 26.2187C24.8662 26.2187 24.0022 25.9566 23.2673 25.4656C22.5324 24.9746 21.9596 24.2767 21.6214 23.4601C21.2832 22.6435 21.1947 21.745 21.3671 20.8782C21.5395 20.0113 21.9651 19.2151 22.5901 18.5901C23.2151 17.9651 24.0113 17.5395 24.8782 17.3671C25.745 17.1947 26.6435 17.2832 27.4601 17.6214C28.2767 17.9596 28.9746 18.5324 29.4656 19.2673C29.9566 20.0022 30.2187 20.8662 30.2187 21.75C30.218 22.935 29.747 24.0712 28.9091 24.9091C28.0712 25.747 26.935 26.218 25.75 26.2187Z" fill="white"/>
<defs>
<linearGradient id="paint0_linear_413_79" x1="0" y1="25" x2="50" y2="25" gradientUnits="userSpaceOnUse">
<stop stop-color="#E90C6C"/>
<stop offset="1" stop-color="#D31873"/>
</linearGradient>
</defs>
</svg>
