<svg width="50" height="50" viewBox="0 0 50 50" fill="none" xmlns="http://www.w3.org/2000/svg">
<circle cx="25" cy="25" r="25" fill="url(#paint0_linear_413_74)"/>
<path d="M36.228 29.28C36.1624 29.228 31.4 25.7952 30.0928 26.0416C29.4688 26.152 29.112 26.5776 28.396 27.4296C28.2808 27.5672 28.004 27.8968 27.7888 28.1312C27.3363 27.9836 26.8949 27.804 26.468 27.5936C24.2644 26.5208 22.484 24.7404 21.4112 22.5368C21.2007 22.1099 21.021 21.6685 20.8736 21.216C21.1088 21 21.4384 20.7232 21.5792 20.6048C22.4272 19.8928 22.8536 19.536 22.964 18.9104C23.1904 17.6144 19.76 12.8192 19.724 12.776C19.5684 12.5537 19.3652 12.3687 19.1293 12.2345C18.8934 12.1003 18.6307 12.0202 18.36 12C16.9696 12 13 17.1496 13 18.0168C13 18.0672 13.0728 23.1904 19.3904 29.6168C25.8104 35.9272 30.9328 36 30.9832 36C31.8512 36 37 32.0304 37 30.64C36.98 30.3703 36.9004 30.1084 36.7669 29.8732C36.6334 29.638 36.4493 29.4354 36.228 29.28V29.28Z" fill="white"/>
<defs>
<linearGradient id="paint0_linear_413_74" x1="0" y1="25" x2="50" y2="25" gradientUnits="userSpaceOnUse">
<stop stop-color="#E90C6C"/>
<stop offset="1" stop-color="#D31873"/>
</linearGradient>
</defs>
</svg>
