<svg width="50" height="50" viewBox="0 0 50 50" fill="none" xmlns="http://www.w3.org/2000/svg">
<circle cx="25" cy="25" r="25" fill="#7B5299"/>
<path d="M28.3333 10H21.6667C15.25 10 10 15.25 10 21.6667V26.6667C10 31.1667 12.625 35.2917 16.6667 37.2083V42.7917C16.6667 43.2917 17.2917 43.5417 17.625 43.1667L22.4583 38.3333H28.3333C34.75 38.3333 40 33.0833 40 26.6667V21.6667C40 15.25 34.75 10 28.3333 10ZM32.7083 31.875L31 33.5417C29.2083 35.2917 24.5833 33.2917 20.5 29.125C16.4167 24.9583 14.625 20.2917 16.3333 18.5417L18 16.875C18.625 16.25 19.6667 16.2917 20.375 16.9167L22.7917 19.4167C23.6667 20.2917 23.2917 21.7917 22.1667 22.125C21.375 22.375 20.8333 23.25 21.0833 24.0417C21.5 25.875 23.8333 28.2083 25.5833 28.6667C26.375 28.8333 27.25 28.4167 27.5417 27.625C27.9167 26.5 29.4167 26.1667 30.25 27.0417L32.6667 29.5417C33.3333 30.125 33.3333 31.1667 32.7083 31.875ZM26.5 17.9167C26.3333 17.9167 26.1667 17.9167 26 17.9583C25.7083 18 25.4167 17.75 25.375 17.4583C25.3333 17.1667 25.5833 16.875 25.875 16.8333C26.0833 16.7917 26.2917 16.7917 26.5 16.7917C29.5417 16.7917 32.0417 19.2917 32.0417 22.3333C32.0417 22.5417 32.0417 22.75 32 22.9583C31.9583 23.25 31.6667 23.5 31.375 23.4583C31.0833 23.4167 30.8333 23.125 30.875 22.8333C30.875 22.6667 30.9167 22.5 30.9167 22.3333C30.9583 19.9167 28.9583 17.9167 26.5 17.9167ZM29.8333 22.375C29.8333 22.6667 29.5833 22.9167 29.2917 22.9167C29 22.9167 28.75 22.6667 28.75 22.375C28.75 21.1667 27.75 20.1667 26.5417 20.1667C26.25 20.1667 26 19.9167 26 19.625C26 19.3333 26.25 19.0833 26.5417 19.0833C28.3333 19.0417 29.8333 20.5417 29.8333 22.375ZM34.0833 24.1667C34 24.4583 33.7083 24.6667 33.375 24.5833C33.0833 24.5 32.9167 24.2083 33 23.9167C33.125 23.4167 33.1667 22.9167 33.1667 22.375C33.1667 18.7083 30.1667 15.7083 26.5 15.7083C26.3333 15.7083 26.1667 15.7083 26 15.7083C25.7083 15.7083 25.4167 15.5 25.4167 15.2083C25.4167 14.9167 25.625 14.625 25.9167 14.625C26.125 14.625 26.3333 14.5833 26.5 14.5833C30.7917 14.5833 34.2917 18.0833 34.2917 22.375C34.2917 22.9583 34.2083 23.5833 34.0833 24.1667Z" fill="white"/>
</svg>
