<svg width="50" height="50" viewBox="0 0 50 50" fill="none" xmlns="http://www.w3.org/2000/svg">
<circle cx="25" cy="25" r="25" fill="white"/>
<path d="M25 0C11.1929 0 0 11.1929 0 25C0 38.8071 11.1929 50 25 50C38.8071 50 50 38.8071 50 25C50 11.1929 38.8071 0 25 0ZM25.323 40.1227C22.5237 40.1227 19.94 39.3747 17.6791 38.199L8.8508 40.9776L11.7576 32.6418C10.3581 30.2906 9.4968 27.5118 9.4968 24.6266C9.4968 15.9701 16.6024 9.0236 25.323 9.0236C34.0436 8.9167 41.1492 15.8636 41.1492 24.5197C41.1492 33.1758 34.0436 40.1227 25.323 40.1227Z" fill="#2BB741"/>
<path d="M25.3154 11.694C18.1661 11.694 12.2783 17.4341 12.2783 24.5309C12.2778 27.2438 13.164 29.8825 14.8018 32.0452L13.2246 36.846L18.2713 35.2805C20.4004 36.6574 22.8852 37.3828 25.4207 37.3679C32.57 37.3679 38.4578 31.6277 38.4578 24.5309C38.3524 17.4341 32.4648 11.694 25.3154 11.694ZM33.0386 28.9929L32.8809 29.7461C32.7914 30.1688 32.6194 30.5696 32.3745 30.9256C32.1297 31.2815 31.8169 31.5855 31.4541 31.8202C30.5193 32.4072 29.3188 32.7008 27.7839 32.2703C23.0313 30.9299 20.3451 27.7992 18.8986 25.8425C17.4521 23.8857 16.8914 21.929 17.2555 20.3347C17.5015 19.2682 18.2886 18.4366 18.7806 18.0159C19.0245 17.8103 19.3378 17.7055 19.6563 17.7229L20.6698 17.7815C20.7679 17.7877 20.8623 17.8212 20.9423 17.8782C21.0223 17.9353 21.0847 18.0136 21.1225 18.1044L22.5983 21.5481C22.6359 21.6387 22.6475 21.7379 22.6319 21.8347C22.6162 21.9315 22.574 22.022 22.5098 22.0961L21.2207 23.5733C21.1703 23.6319 21.1387 23.7043 21.1299 23.781C21.1212 23.8578 21.1358 23.9354 21.1719 24.0038C22.8742 27.2519 25.9639 28.5434 26.8888 28.8663C26.9651 28.8934 27.0481 28.8958 27.1258 28.873C27.2035 28.8502 27.2721 28.8034 27.3217 28.7393L28.6693 26.9979C28.743 26.904 28.8461 26.8375 28.9621 26.8091C29.0781 26.7808 29.2002 26.7923 29.3089 26.8417L32.743 28.407C32.8507 28.4575 32.9384 28.5427 32.992 28.6489C33.0456 28.7551 33.062 28.8762 33.0386 28.9929Z" fill="#2BB741"/>
</svg>
